<?xml version="1.0" encoding="UTF-8"?>
<!DOCTYPE svg  PUBLIC '-//W3C//DTD SVG 1.1//EN'  'http://www.w3.org/Graphics/SVG/1.1/DTD/svg11.dtd'>
<svg width="512px" height="512px" enable-background="new 0 0 448 448" version="1.1" viewBox="0 0 448 448" xml:space="preserve" xmlns="http://www.w3.org/2000/svg">
	<path d="m64 256h-64v-64h64v64zm64-128h-64v64h64v-64zm64-64h-64v64h64v-64zm64-64h-64v64h64v-64zm-128 256h-64v64h64v-64zm64 64h-64v64h64v-64zm64 64h-64v64h64v-64zm0-192h-64v64h64v-64zm64-64h-64v64h64v-64zm64-64h-64v64h64v-64zm64-64h-64v64h64v-64zm-128 256h-64v64h64v-64zm64 64h-64v64h64v-64zm64 64h-64v64h64v-64z" fill="#31ae1f"/>
</svg>
